<?xml version="1.0" encoding="utf-8"?>
<!-- Generator: Adobe Illustrator 15.0.0, SVG Export Plug-In . SVG Version: 6.00 Build 0)  -->
<!DOCTYPE svg PUBLIC "-//W3C//DTD SVG 1.1//EN" "http://www.w3.org/Graphics/SVG/1.1/DTD/svg11.dtd">
<svg version="1.1" id="Calque_1" xmlns="http://www.w3.org/2000/svg" xmlns:xlink="http://www.w3.org/1999/xlink" x="0px" y="0px"
	 width="144px" height="25px" viewBox="188.5 126.614 144 25" enable-background="new 188.5 126.614 144 25" xml:space="preserve">
<g>
	<g>
		<g enable-background="new    ">
			<path fill="#DB1D1D" d="M205.166,139.285l6.196,0.16c-0.408,3.207-1.519,5.686-3.331,7.436c-1.813,1.749-4.177,2.623-7.093,2.623
				c-2.964,0-5.444-0.993-7.441-2.98c-1.998-1.987-2.996-4.454-2.996-7.398c0-2.964,1.018-5.457,3.054-7.479
				s4.546-3.032,7.529-3.032c2.936,0,5.384,0.99,7.348,2.974c1.36,1.37,2.323,3.28,2.887,5.729l-6.342,0.423
				c-0.709-2.177-2.055-3.266-4.039-3.266c-1.263,0-2.306,0.438-3.126,1.312c-0.821,0.874-1.232,1.987-1.232,3.339
				c0,1.302,0.403,2.378,1.209,3.229c0.807,0.851,1.828,1.275,3.062,1.275c1.254,0,2.253-0.375,2.996-1.123
				C204.59,141.758,205.03,140.686,205.166,139.285z"/>
		</g>
		<g enable-background="new    ">
			<path fill="#FFFFFF" d="M220.234,134.329v5.83c-0.379-0.213-0.724-0.32-1.035-0.32c-0.991,0-1.487,0.759-1.487,2.274v6.896
				h-5.452v-7.944c0-2.101,0.574-3.773,1.72-5.022s2.677-1.873,4.592-1.873C219,134.169,219.554,134.222,220.234,134.329z"/>
			<path fill="#FFFFFF" d="M227.271,134.169c2.06,0,3.826,0.74,5.299,2.223s2.208,3.258,2.208,5.328c0,2.1-0.746,3.887-2.238,5.364
				c-1.492,1.479-3.292,2.217-5.401,2.217s-3.912-0.741-5.408-2.224c-1.497-1.482-2.245-3.267-2.245-5.357
				c0-2.129,0.748-3.92,2.245-5.372C223.228,134.895,225.074,134.169,227.271,134.169z M227.125,139.547
				c-0.583,0-1.079,0.212-1.486,0.635c-0.409,0.423-0.613,0.94-0.613,1.553c0,0.603,0.207,1.118,0.62,1.545
				c0.413,0.429,0.905,0.643,1.479,0.643c0.583,0,1.081-0.214,1.495-0.643c0.412-0.427,0.619-0.942,0.619-1.545
				c0-0.612-0.204-1.13-0.612-1.553C228.218,139.759,227.717,139.547,227.125,139.547z"/>
			<path fill="#FFFFFF" d="M235.59,134.679h5.452v7.828c0,0.612,0.063,1.037,0.189,1.275c0.126,0.238,0.355,0.356,0.686,0.356
				c0.612,0,0.919-0.543,0.919-1.632v-7.828h5.452v7.828c0,0.612,0.066,1.037,0.197,1.275c0.131,0.238,0.362,0.356,0.693,0.356
				c0.602,0,0.904-0.543,0.904-1.632v-7.828h5.451v8.951c0,1.632-0.548,3.021-1.647,4.161c-1.098,1.142-2.429,1.713-3.993,1.713
				c-1.614,0-3.062-0.68-4.345-2.04c-1.419,1.36-2.848,2.04-4.286,2.04c-1.818,0-3.275-0.661-4.373-1.981
				c-0.866-1.04-1.297-2.543-1.297-4.506V134.679z"/>
			<path fill="#FFFFFF" d="M266.213,129.109h5.452v12.115c0,2.226-0.583,4.037-1.749,5.438c-0.672,0.807-1.523,1.448-2.558,1.924
				c-1.036,0.477-2.099,0.715-3.186,0.715c-2.168,0-3.995-0.729-5.482-2.188c-1.487-1.458-2.23-3.245-2.23-5.364
				c0-2.051,0.739-3.825,2.216-5.321s3.227-2.246,5.248-2.246c0.321,0,0.806,0.031,1.458,0.089v6.005
				c-0.447-0.348-0.895-0.522-1.341-0.522c-0.564,0-1.048,0.205-1.451,0.618s-0.605,0.911-0.605,1.494
				c0,0.563,0.209,1.048,0.627,1.451s0.918,0.605,1.501,0.605c1.399,0,2.1-0.968,2.1-2.901V129.109z"/>
		</g>
		<g enable-background="new    ">
			<path fill="#DB1D1D" d="M282.707,129.023v5.67c-0.428-0.146-0.758-0.219-0.992-0.219c-0.448,0-0.831,0.164-1.151,0.495
				c-0.321,0.33-0.481,0.729-0.481,1.195c0,0.398,0.175,0.905,0.525,1.517l0.452,0.787c0.817,1.419,1.224,2.79,1.224,4.11
				c0,1.935-0.688,3.572-2.063,4.914c-1.375,1.341-3.053,2.011-5.036,2.011c-0.953,0-1.895-0.219-2.827-0.655v-5.759
				c0.563,0.36,1.063,0.54,1.5,0.54c0.517,0,0.946-0.148,1.292-0.445c0.345-0.296,0.517-0.667,0.517-1.115
				c0-0.291-0.277-0.929-0.831-1.91c-0.883-1.554-1.326-3.109-1.326-4.664c0-1.876,0.668-3.492,2.004-4.848
				c1.335-1.355,2.933-2.033,4.789-2.033C281.117,128.614,281.918,128.75,282.707,129.023z"/>
		</g>
		<g enable-background="new    ">
			<path fill="#FFFFFF" d="M288.662,129.109v5.569h2.45v5.757h-2.45c0,1.157,0.183,1.954,0.547,2.393
				c0.364,0.437,1.033,0.656,2.004,0.656v5.729c-0.281,0.01-0.49,0.015-0.626,0.015c-1.233,0-2.398-0.286-3.492-0.86
				c-1.093-0.573-1.97-1.352-2.631-2.333c-0.836-1.253-1.253-2.915-1.253-4.984v-11.94H288.662z"/>
			<path fill="#FFFFFF" d="M299.226,134.169c2.06,0,3.828,0.74,5.299,2.223c1.472,1.482,2.209,3.258,2.209,5.328
				c0,2.1-0.747,3.887-2.237,5.364c-1.493,1.479-3.293,2.217-5.402,2.217s-3.912-0.741-5.409-2.224
				c-1.496-1.482-2.244-3.267-2.244-5.357c0-2.129,0.749-3.92,2.244-5.372C295.183,134.895,297.029,134.169,299.226,134.169z
				 M299.08,139.547c-0.583,0-1.078,0.212-1.486,0.635c-0.409,0.423-0.613,0.94-0.613,1.553c0,0.603,0.207,1.118,0.62,1.545
				c0.413,0.429,0.906,0.643,1.479,0.643c0.583,0,1.081-0.214,1.494-0.643c0.414-0.427,0.619-0.942,0.619-1.545
				c0-0.612-0.203-1.13-0.61-1.553C300.173,139.759,299.674,139.547,299.08,139.547z"/>
			<path fill="#FFFFFF" d="M315.518,134.329v5.83c-0.379-0.213-0.723-0.32-1.035-0.32c-0.991,0-1.487,0.759-1.487,2.274v6.896
				h-5.452v-7.944c0-2.101,0.574-3.773,1.72-5.022c1.147-1.249,2.679-1.873,4.593-1.873
				C314.285,134.169,314.839,134.222,315.518,134.329z"/>
			<path fill="#FFFFFF" d="M329.945,142.623h-8.267c-0.126-0.417-0.189-0.802-0.189-1.151c0-0.485,0.089-0.962,0.264-1.428h2.769
				c-0.194-1.08-0.801-1.619-1.821-1.619c-0.681,0-1.234,0.289-1.662,0.868s-0.642,1.318-0.642,2.223
				c0,0.942,0.207,1.705,0.62,2.289c0.412,0.583,0.954,0.875,1.624,0.875c0.546,0,1.07-0.272,1.575-0.817l3.105,3.732
				c-1.448,1.137-3.057,1.706-4.825,1.706c-2.158,0-3.971-0.725-5.437-2.172c-1.468-1.449-2.202-3.242-2.202-5.38
				c0-2.129,0.74-3.927,2.223-5.395c1.482-1.467,3.302-2.2,5.46-2.2c2.109,0,3.88,0.717,5.313,2.15
				c1.434,1.433,2.15,3.199,2.15,5.299C330.004,141.816,329.983,142.157,329.945,142.623z"/>
		</g>
	</g>
</g>
</svg>
