<?xml version="1.0" encoding="utf-8"?>
<!-- Generator: Adobe Illustrator 15.0.0, SVG Export Plug-In . SVG Version: 6.00 Build 0)  -->
<!DOCTYPE svg PUBLIC "-//W3C//DTD SVG 1.1//EN" "http://www.w3.org/Graphics/SVG/1.1/DTD/svg11.dtd">
<svg version="1.1" id="Calque_1" xmlns="http://www.w3.org/2000/svg" xmlns:xlink="http://www.w3.org/1999/xlink" x="0px" y="0px"
	 width="640px" height="228px" viewBox="0 0 640 228" enable-background="new 0 0 640 228" xml:space="preserve">
<g>
	<g>
		<g enable-background="new    ">
			<path fill="#DB1D1D" d="M266.266,141.446l16.802,0.435c-1.107,8.697-4.119,15.418-9.034,20.162
				c-4.916,4.743-11.326,7.115-19.232,7.115c-8.039,0-14.766-2.694-20.182-8.084s-8.124-12.077-8.124-20.063
				c0-8.038,2.761-14.798,8.282-20.28c5.521-5.481,12.327-8.223,20.418-8.223c7.959,0,14.601,2.688,19.925,8.064
				c3.689,3.717,6.299,8.896,7.828,15.537l-17.197,1.146c-1.924-5.903-5.574-8.855-10.951-8.855c-3.427,0-6.253,1.186-8.48,3.558
				c-2.228,2.372-3.34,5.391-3.34,9.053c0,3.532,1.093,6.451,3.281,8.757c2.187,2.307,4.955,3.459,8.302,3.459
				c3.4,0,6.108-1.014,8.124-3.044C264.705,148.153,265.897,145.241,266.266,141.446z"/>
		</g>
		<g enable-background="new    ">
			<path fill="#393530" d="M307.128,128.005v15.813c-1.028-0.58-1.964-0.87-2.807-0.87c-2.688,0-4.033,2.056-4.033,6.167v18.699
				h-14.785V146.27c0-5.693,1.555-10.232,4.665-13.619c3.109-3.387,7.26-5.08,12.453-5.08
				C303.781,127.57,305.283,127.715,307.128,128.005z"/>
			<path fill="#393530" d="M326.209,127.57c5.586,0,10.377,2.01,14.369,6.028c3.993,4.02,5.99,8.836,5.99,14.449
				c0,5.693-2.023,10.542-6.068,14.548c-4.047,4.007-8.929,6.01-14.647,6.01c-5.719,0-10.608-2.01-14.667-6.029
				c-4.059-4.019-6.088-8.861-6.088-14.528c0-5.771,2.029-10.627,6.088-14.567C315.244,129.54,320.252,127.57,326.209,127.57z
				 M325.812,142.157c-1.581,0-2.925,0.573-4.031,1.72c-1.107,1.146-1.661,2.55-1.661,4.211c0,1.634,0.56,3.03,1.681,4.19
				c1.119,1.16,2.457,1.739,4.012,1.739c1.582,0,2.932-0.579,4.053-1.739c1.119-1.16,1.68-2.557,1.68-4.19
				c0-1.661-0.553-3.064-1.66-4.211S327.42,142.157,325.812,142.157z"/>
			<path fill="#393530" d="M348.768,128.954h14.785v21.229c0,1.66,0.172,2.813,0.514,3.459c0.343,0.646,0.962,0.969,1.858,0.969
				c1.661,0,2.491-1.476,2.491-4.428v-21.229h14.785v21.229c0,1.66,0.178,2.813,0.533,3.459c0.355,0.646,0.981,0.969,1.878,0.969
				c1.634,0,2.451-1.476,2.451-4.428v-21.229h14.785v24.272c0,4.428-1.489,8.19-4.468,11.287s-6.588,4.645-10.832,4.645
				c-4.375,0-8.301-1.844-11.78-5.534c-3.849,3.69-7.723,5.534-11.622,5.534c-4.93,0-8.883-1.792-11.86-5.376
				c-2.347-2.82-3.519-6.892-3.519-12.216V128.954z"/>
			<path fill="#393530" d="M431.812,113.853h14.785v32.852c0,6.035-1.582,10.95-4.744,14.745c-1.818,2.188-4.131,3.928-6.938,5.219
				s-5.688,1.938-8.639,1.938c-5.877,0-10.832-1.977-14.864-5.931c-4.032-3.953-6.048-8.802-6.048-14.548
				c0-5.561,2.002-10.37,6.008-14.43c4.006-4.058,8.75-6.088,14.232-6.088c0.869,0,2.188,0.079,3.953,0.237v16.287
				c-1.213-0.948-2.425-1.423-3.637-1.423c-1.529,0-2.84,0.561-3.934,1.681s-1.641,2.471-1.641,4.052c0,1.528,0.566,2.84,1.7,3.934
				c1.133,1.094,2.49,1.641,4.071,1.641c3.795,0,5.693-2.622,5.693-7.867V113.853z"/>
		</g>
		<g enable-background="new    ">
			<path fill="#DB1D1D" d="M476.541,113.615v15.378c-1.159-0.396-2.055-0.593-2.688-0.593c-1.213,0-2.254,0.448-3.123,1.344
				c-0.869,0.896-1.305,1.977-1.305,3.242c0,1.081,0.475,2.451,1.424,4.111l1.225,2.135c2.215,3.848,3.321,7.564,3.321,11.148
				c0,5.244-1.865,9.686-5.595,13.322c-3.729,3.637-8.281,5.455-13.658,5.455c-2.583,0-5.139-0.593-7.669-1.778v-15.616
				c1.528,0.976,2.886,1.463,4.071,1.463c1.396,0,2.562-0.401,3.499-1.205c0.935-0.804,1.403-1.812,1.403-3.024
				c0-0.791-0.751-2.517-2.254-5.179c-2.398-4.217-3.597-8.434-3.597-12.65c0-5.087,1.812-9.469,5.436-13.146
				c3.624-3.676,7.952-5.515,12.987-5.515C472.232,112.508,474.406,112.877,476.541,113.615z"/>
		</g>
		<g enable-background="new    ">
			<path fill="#393530" d="M492.693,113.853v15.102h6.643v15.615h-6.643c0,3.137,0.494,5.297,1.482,6.483
				c0.988,1.186,2.801,1.778,5.436,1.778v15.537c-0.764,0.025-1.33,0.039-1.699,0.039c-3.348,0-6.504-0.776-9.469-2.332
				c-2.965-1.555-5.344-3.663-7.135-6.325c-2.268-3.4-3.4-7.907-3.4-13.521v-32.377H492.693z"/>
			<path fill="#393530" d="M521.342,127.57c5.586,0,10.377,2.01,14.369,6.028c3.993,4.02,5.99,8.836,5.99,14.449
				c0,5.693-2.023,10.542-6.068,14.548c-4.047,4.007-8.929,6.01-14.647,6.01c-5.72,0-10.608-2.01-14.667-6.029
				c-4.059-4.019-6.088-8.861-6.088-14.528c0-5.771,2.029-10.627,6.088-14.567S515.385,127.57,521.342,127.57z M520.945,142.157
				c-1.581,0-2.925,0.573-4.031,1.72c-1.107,1.146-1.661,2.55-1.661,4.211c0,1.634,0.56,3.03,1.681,4.19
				c1.119,1.16,2.457,1.739,4.012,1.739c1.582,0,2.932-0.579,4.053-1.739c1.119-1.16,1.68-2.557,1.68-4.19
				c0-1.661-0.553-3.064-1.66-4.211S522.553,142.157,520.945,142.157z"/>
			<path fill="#393530" d="M565.525,128.005v15.813c-1.028-0.58-1.965-0.87-2.807-0.87c-2.689,0-4.033,2.056-4.033,6.167v18.699
				H543.9V146.27c0-5.693,1.555-10.232,4.665-13.619c3.109-3.387,7.261-5.08,12.452-5.08
				C562.178,127.57,563.68,127.715,565.525,128.005z"/>
			<path fill="#393530" d="M604.648,150.499h-22.415c-0.343-1.133-0.515-2.174-0.515-3.123c0-1.317,0.238-2.609,0.713-3.874h7.511
				c-0.528-2.926-2.175-4.389-4.942-4.389c-1.844,0-3.347,0.785-4.506,2.353c-1.16,1.568-1.74,3.578-1.74,6.028
				c0,2.557,0.561,4.626,1.681,6.207s2.589,2.372,4.407,2.372c1.477,0,2.899-0.737,4.27-2.214l8.422,10.12
				c-3.928,3.084-8.289,4.626-13.086,4.626c-5.852,0-10.767-1.964-14.746-5.891s-5.969-8.789-5.969-14.588
				c0-5.771,2.009-10.647,6.028-14.627c4.019-3.979,8.954-5.97,14.806-5.97c5.719,0,10.521,1.944,14.409,5.831
				c3.888,3.888,5.831,8.678,5.831,14.37C604.807,148.312,604.754,149.234,604.648,150.499z"/>
		</g>
	</g>
	<g enable-background="new    ">
		<path fill="#393530" d="M344.486,200.652v-17.21h-5.791c-0.184,0-0.339-0.068-0.467-0.206c-0.128-0.137-0.191-0.297-0.191-0.48
			c0-0.183,0.063-0.338,0.191-0.466s0.283-0.192,0.467-0.192h12.9c0.184,0,0.339,0.064,0.467,0.192s0.192,0.283,0.192,0.466
			c0,0.184-0.064,0.344-0.192,0.48c-0.128,0.138-0.283,0.206-0.467,0.206h-5.791v17.21c0,0.184-0.064,0.339-0.192,0.467
			c-0.128,0.129-0.284,0.192-0.467,0.192s-0.339-0.063-0.466-0.192C344.551,200.991,344.486,200.836,344.486,200.652z"/>
		<path fill="#393530" d="M356.811,201.312h-0.137c-0.439,0-0.658-0.22-0.658-0.659v-17.896c0-0.183,0.063-0.338,0.191-0.466
			s0.283-0.192,0.467-0.192c0.183,0,0.344,0.064,0.48,0.192s0.206,0.283,0.206,0.466v7.082c1.116-1.317,2.497-1.977,4.145-1.977
			s3.015,0.499,4.104,1.496c1.089,0.998,1.634,2.265,1.634,3.802v7.493c0,0.184-0.069,0.339-0.207,0.467
			c-0.137,0.129-0.297,0.192-0.479,0.192c-0.184,0-0.339-0.063-0.467-0.192c-0.128-0.128-0.192-0.283-0.192-0.467v-7.493
			c0-1.152-0.412-2.1-1.234-2.841c-0.824-0.741-1.836-1.111-3.033-1.111c-1.199,0-2.21,0.37-3.033,1.111
			c-0.824,0.741-1.235,1.688-1.235,2.841v7.576c0,0.037-0.037,0.123-0.11,0.261c-0.073,0.137-0.201,0.233-0.384,0.288
			C356.848,201.303,356.829,201.312,356.811,201.312z"/>
		<path fill="#393530" d="M383.902,194.12v0.109c0,0.184-0.063,0.33-0.191,0.439c-0.129,0.109-0.284,0.165-0.467,0.165H372.21
			c0.073,1.464,0.612,2.689,1.619,3.678s2.205,1.482,3.597,1.482c0.896,0,1.729-0.22,2.497-0.659
			c0.769-0.438,1.382-1.033,1.839-1.784c0.22-0.365,0.512-0.438,0.879-0.22c0.365,0.257,0.439,0.567,0.219,0.934
			c-0.586,0.934-1.357,1.675-2.318,2.224s-2,0.823-3.115,0.823c-1.812,0-3.354-0.654-4.626-1.963
			c-1.272-1.308-1.907-2.891-1.907-4.748s0.635-3.445,1.907-4.763s2.79-1.977,4.557-1.977c1.766,0,3.262,0.6,4.487,1.798
			C383.07,190.858,383.756,192.346,383.902,194.12z M380.719,190.414c-0.951-0.823-2.055-1.235-3.307-1.235
			c-1.254,0-2.357,0.408-3.309,1.222c-0.951,0.814-1.555,1.862-1.812,3.144h10.184C382.256,192.281,381.67,191.238,380.719,190.414z
			"/>
		<path fill="#393530" d="M395.884,199.349c-1.345-1.308-2.018-2.899-2.018-4.775s0.673-3.463,2.018-4.763
			c1.345-1.299,2.9-1.949,4.667-1.949c1.766,0,3.27,0.494,4.515,1.482c0.146,0.092,0.229,0.229,0.247,0.412
			c0.018,0.183-0.037,0.348-0.164,0.494c-0.275,0.312-0.577,0.348-0.906,0.109c-1.007-0.805-2.224-1.208-3.65-1.208
			c-1.428,0-2.686,0.531-3.774,1.593s-1.634,2.342-1.634,3.843c0,1.5,0.545,2.776,1.634,3.829c1.089,1.052,2.342,1.578,3.761,1.578
			c1.418,0,2.639-0.394,3.664-1.181c0.329-0.237,0.635-0.192,0.92,0.138c0.283,0.329,0.232,0.641-0.151,0.933
			c-1.226,0.952-2.636,1.428-4.228,1.428C398.862,201.312,397.229,200.657,395.884,199.349z"/>
		<path fill="#393530" d="M409.512,200.652v-12.104c0-0.183,0.064-0.338,0.191-0.467c0.129-0.128,0.284-0.192,0.467-0.192
			c0.184,0,0.339,0.064,0.467,0.192c0.129,0.129,0.192,0.284,0.192,0.467v2.965c0.073-0.146,0.138-0.257,0.192-0.33
			c1.408-2.195,3.202-3.294,5.38-3.294c0.183,0,0.339,0.064,0.467,0.192c0.128,0.129,0.192,0.284,0.192,0.467
			c0,0.184-0.064,0.339-0.192,0.467s-0.284,0.192-0.467,0.192c-1.464,0-2.763,0.731-3.897,2.195
			c-0.659,0.879-1.199,1.922-1.619,3.129c-0.037,0.074-0.056,0.147-0.056,0.22v5.901c0,0.184-0.063,0.339-0.192,0.467
			c-0.128,0.129-0.283,0.192-0.467,0.192c-0.183,0-0.338-0.063-0.467-0.192C409.576,200.991,409.512,200.836,409.512,200.652z"/>
		<path fill="#393530" d="M421.809,199.321c-1.244-1.326-1.866-2.904-1.866-4.734s0.622-3.408,1.866-4.735
			c1.244-1.326,2.745-1.99,4.502-1.99s3.257,0.664,4.502,1.99c1.244,1.327,1.866,2.905,1.866,4.735s-0.622,3.408-1.866,4.734
			c-1.245,1.327-2.745,1.99-4.502,1.99S423.053,200.648,421.809,199.321z M426.311,189.151c-1.373,0-2.558,0.531-3.555,1.593
			c-0.998,1.062-1.496,2.338-1.496,3.829s0.498,2.768,1.496,3.829c0.997,1.062,2.182,1.592,3.555,1.592s2.557-0.53,3.555-1.592
			c0.997-1.062,1.496-2.338,1.496-3.829s-0.499-2.768-1.496-3.829C428.867,189.683,427.684,189.151,426.311,189.151z"/>
		<path fill="#393530" d="M435.89,199.39c-0.312-0.274-0.339-0.566-0.082-0.878c0.11-0.146,0.256-0.229,0.438-0.247
			c0.184-0.018,0.348,0.037,0.494,0.165c1.428,1.043,2.727,1.564,3.898,1.564c1.17,0,2.095-0.274,2.771-0.823
			c0.678-0.458,1.012-0.993,1.002-1.606c-0.009-0.612-0.311-1.157-0.905-1.633s-1.56-0.823-2.896-1.043l-0.055-0.027
			c-1.428-0.256-2.443-0.604-3.047-1.043c-0.971-0.567-1.455-1.373-1.455-2.416s0.484-1.921,1.455-2.635
			c0.878-0.604,1.976-0.906,3.293-0.906c0.531,0,1.066,0.087,1.605,0.261c0.54,0.175,0.952,0.339,1.236,0.494
			c0.283,0.156,0.672,0.39,1.166,0.7c0.146,0.109,0.238,0.257,0.274,0.439s0.009,0.348-0.082,0.494
			c-0.092,0.146-0.229,0.237-0.412,0.274s-0.348,0.009-0.493-0.083c-0.459-0.311-0.801-0.535-1.029-0.672
			c-0.23-0.138-0.563-0.283-1.002-0.439c-0.439-0.155-0.861-0.233-1.264-0.233c-1.061,0-1.894,0.243-2.498,0.728
			c-0.604,0.485-0.905,0.993-0.905,1.523c0,0.531,0.257,0.998,0.769,1.399c0.641,0.439,1.555,0.751,2.745,0.934h0.055
			c1.189,0.184,2.278,0.549,3.267,1.098c1.006,0.659,1.51,1.542,1.51,2.649s-0.499,2.031-1.496,2.772
			c-0.998,0.741-2.127,1.111-3.391,1.111C439.119,201.294,437.463,200.652,435.89,199.39z"/>
		<path fill="#393530" d="M448.406,199.39c-0.311-0.274-0.339-0.566-0.082-0.878c0.109-0.146,0.256-0.229,0.439-0.247
			c0.182-0.018,0.348,0.037,0.494,0.165c1.427,1.043,2.727,1.564,3.897,1.564s2.095-0.274,2.772-0.823
			c0.676-0.458,1.011-0.993,1.002-1.606c-0.01-0.612-0.312-1.157-0.906-1.633c-0.595-0.476-1.561-0.823-2.896-1.043l-0.055-0.027
			c-1.427-0.256-2.442-0.604-3.047-1.043c-0.97-0.567-1.454-1.373-1.454-2.416s0.484-1.921,1.454-2.635
			c0.879-0.604,1.977-0.906,3.295-0.906c0.529,0,1.065,0.087,1.605,0.261c0.539,0.175,0.951,0.339,1.234,0.494
			c0.284,0.156,0.673,0.39,1.167,0.7c0.146,0.109,0.237,0.257,0.274,0.439s0.01,0.348-0.082,0.494s-0.229,0.237-0.412,0.274
			s-0.348,0.009-0.494-0.083c-0.457-0.311-0.801-0.535-1.029-0.672c-0.229-0.138-0.562-0.283-1.002-0.439
			c-0.439-0.155-0.859-0.233-1.262-0.233c-1.062,0-1.895,0.243-2.498,0.728c-0.604,0.485-0.906,0.993-0.906,1.523
			c0,0.531,0.256,0.998,0.769,1.399c0.641,0.439,1.556,0.751,2.745,0.934h0.055c1.189,0.184,2.278,0.549,3.267,1.098
			c1.006,0.659,1.509,1.542,1.509,2.649s-0.498,2.031-1.495,2.772s-2.128,1.111-3.39,1.111
			C451.636,201.294,449.98,200.652,448.406,199.39z"/>
		<path fill="#393530" d="M461.554,192.309c-0.348,0-0.521-0.174-0.521-0.521s0.174-0.521,0.521-0.521h5.847
			c0.348,0,0.521,0.164,0.521,0.494c0,0.164-0.051,0.297-0.15,0.397c-0.102,0.101-0.225,0.151-0.371,0.151H461.554z"/>
		<path fill="#393530" d="M476.02,187.861c0.164,0,0.315,0.069,0.453,0.206c0.137,0.138,0.205,0.288,0.205,0.453
			s-0.068,0.315-0.205,0.453c-0.138,0.137-0.289,0.205-0.453,0.205h-1.729v9.8c0,0.293,0.114,0.531,0.343,0.714
			s0.436,0.274,0.618,0.274s0.347,0.073,0.493,0.22s0.221,0.302,0.221,0.466c0,0.165-0.074,0.316-0.221,0.453
			c-0.146,0.138-0.301,0.206-0.466,0.206c-0.677,0-1.24-0.22-1.688-0.659c-0.448-0.438-0.672-0.997-0.672-1.674v-9.8h-1.675
			c-0.293,0-0.476-0.055-0.549-0.164c-0.073-0.11-0.11-0.256-0.11-0.439c0-0.183,0.01-0.311,0.027-0.384
			c0.056-0.22,0.266-0.33,0.632-0.33h1.675v-4.995c0-0.165,0.068-0.315,0.205-0.453c0.138-0.138,0.293-0.206,0.467-0.206
			s0.334,0.068,0.48,0.206s0.22,0.288,0.22,0.453v4.995H476.02z"/>
		<path fill="#393530" d="M491.197,187.861c0.385,0.092,0.577,0.303,0.577,0.632v11.748c0,1.757-0.622,3.248-1.866,4.474
			c-1.245,1.227-2.755,1.84-4.529,1.84c-0.916,0-1.84-0.211-2.772-0.632c-0.366-0.238-0.462-0.526-0.288-0.864
			c0.174-0.339,0.462-0.453,0.864-0.344c0.695,0.348,1.428,0.521,2.196,0.521c1.391,0,2.58-0.484,3.568-1.454
			c0.988-0.971,1.491-2.15,1.51-3.541v-0.879c-1.135,1.281-2.489,1.918-4.062,1.908c-1.574-0.009-2.892-0.549-3.953-1.62
			c-1.061-1.07-1.592-2.355-1.592-3.856v-7.301c0-0.183,0.064-0.334,0.192-0.453s0.283-0.179,0.466-0.179
			c0.184,0,0.339,0.06,0.467,0.179c0.129,0.119,0.192,0.271,0.192,0.453v7.301c0,1.153,0.402,2.133,1.208,2.938
			c0.805,0.806,1.779,1.208,2.924,1.208c1.143,0,2.117-0.402,2.923-1.208c0.805-0.805,1.217-1.784,1.235-2.938v-7.301
			c0-0.146,0.018-0.237,0.055-0.274c0.036-0.037,0.072-0.083,0.109-0.138c0-0.072,0.092-0.137,0.275-0.192h0.055
			c0.036-0.018,0.063-0.027,0.082-0.027H491.197z"/>
		<path fill="#393530" d="M497.127,206.279v-17.759c0-0.183,0.064-0.339,0.191-0.467c0.129-0.128,0.284-0.192,0.467-0.192
			c0.184,0,0.344,0.064,0.48,0.192c0.138,0.128,0.207,0.284,0.207,0.467v1.949c0.584-0.806,1.326-1.441,2.223-1.908
			s1.857-0.7,2.882-0.7c1.812,0,3.349,0.65,4.612,1.949c1.262,1.3,1.893,2.868,1.893,4.707c0,1.84-0.631,3.418-1.893,4.735
			c-1.264,1.317-2.801,1.977-4.612,1.977c-1.024,0-1.985-0.238-2.882-0.714s-1.639-1.116-2.223-1.922v7.686
			c0,0.184-0.069,0.339-0.207,0.467c-0.137,0.128-0.297,0.192-0.48,0.192c-0.183,0-0.338-0.064-0.467-0.192
			C497.191,206.618,497.127,206.463,497.127,206.279z M498.473,194.312v0.219c0,1.482,0.502,2.745,1.509,3.788
			s2.205,1.574,3.596,1.593c1.428-0.019,2.645-0.55,3.651-1.593c1.006-1.043,1.51-2.306,1.51-3.788c0-1.481-0.504-2.739-1.51-3.773
			c-1.007-1.034-2.205-1.551-3.596-1.551c-1.392,0-2.586,0.494-3.582,1.481C499.053,191.677,498.527,192.885,498.473,194.312z"/>
		<path fill="#393530" d="M526.305,194.12v0.109c0,0.184-0.064,0.33-0.192,0.439s-0.284,0.165-0.467,0.165h-11.034
			c0.072,1.464,0.613,2.689,1.619,3.678s2.205,1.482,3.596,1.482c0.896,0,1.729-0.22,2.498-0.659
			c0.769-0.438,1.381-1.033,1.84-1.784c0.219-0.365,0.512-0.438,0.877-0.22c0.367,0.257,0.439,0.567,0.221,0.934
			c-0.586,0.934-1.359,1.675-2.32,2.224s-1.999,0.823-3.115,0.823c-1.812,0-3.354-0.654-4.625-1.963
			c-1.271-1.308-1.908-2.891-1.908-4.748s0.637-3.445,1.908-4.763s2.791-1.977,4.557-1.977s3.262,0.6,4.488,1.798
			C525.472,190.858,526.158,192.346,526.305,194.12z M523.12,190.414c-0.952-0.823-2.054-1.235-3.308-1.235
			s-2.355,0.408-3.307,1.222c-0.952,0.814-1.557,1.862-1.812,3.144h10.184C524.657,192.281,524.072,191.238,523.12,190.414z"/>
		<path fill="#393530" d="M529.131,199.39c-0.311-0.274-0.338-0.566-0.082-0.878c0.11-0.146,0.256-0.229,0.439-0.247
			c0.183-0.018,0.348,0.037,0.494,0.165c1.428,1.043,2.727,1.564,3.898,1.564c1.17,0,2.094-0.274,2.771-0.823
			c0.677-0.458,1.012-0.993,1.002-1.606c-0.01-0.612-0.312-1.157-0.906-1.633c-0.594-0.476-1.56-0.823-2.896-1.043l-0.055-0.027
			c-1.427-0.256-2.442-0.604-3.047-1.043c-0.97-0.567-1.454-1.373-1.454-2.416s0.484-1.921,1.454-2.635
			c0.878-0.604,1.976-0.906,3.294-0.906c0.53,0,1.066,0.087,1.605,0.261c0.539,0.175,0.951,0.339,1.235,0.494
			c0.284,0.156,0.673,0.39,1.167,0.7c0.146,0.109,0.237,0.257,0.273,0.439c0.037,0.183,0.01,0.348-0.082,0.494
			s-0.229,0.237-0.412,0.274c-0.183,0.037-0.348,0.009-0.493-0.083c-0.458-0.311-0.801-0.535-1.029-0.672
			c-0.229-0.138-0.563-0.283-1.002-0.439c-0.439-0.155-0.86-0.233-1.263-0.233c-1.062,0-1.895,0.243-2.498,0.728
			c-0.604,0.485-0.906,0.993-0.906,1.523c0,0.531,0.257,0.998,0.77,1.399c0.641,0.439,1.555,0.751,2.744,0.934h0.055
			c1.189,0.184,2.279,0.549,3.268,1.098c1.006,0.659,1.509,1.542,1.509,2.649s-0.499,2.031-1.495,2.772
			c-0.998,0.741-2.128,1.111-3.391,1.111C532.361,201.294,530.705,200.652,529.131,199.39z"/>
		<path fill="#393530" d="M548.895,199.39c-0.312-0.274-0.34-0.566-0.082-0.878c0.109-0.146,0.256-0.229,0.438-0.247
			c0.183-0.018,0.348,0.037,0.494,0.165c1.427,1.043,2.727,1.564,3.897,1.564s2.096-0.274,2.772-0.823
			c0.677-0.458,1.011-0.993,1.002-1.606c-0.009-0.612-0.312-1.157-0.905-1.633c-0.596-0.476-1.561-0.823-2.896-1.043l-0.055-0.027
			c-1.428-0.256-2.443-0.604-3.047-1.043c-0.971-0.567-1.455-1.373-1.455-2.416s0.484-1.921,1.455-2.635
			c0.879-0.604,1.977-0.906,3.294-0.906c0.53,0,1.065,0.087,1.605,0.261c0.54,0.175,0.952,0.339,1.235,0.494
			c0.283,0.156,0.672,0.39,1.166,0.7c0.146,0.109,0.238,0.257,0.275,0.439c0.036,0.183,0.009,0.348-0.082,0.494
			c-0.092,0.146-0.229,0.237-0.412,0.274c-0.184,0.037-0.348,0.009-0.494-0.083c-0.458-0.311-0.801-0.535-1.029-0.672
			c-0.229-0.138-0.562-0.283-1.002-0.439c-0.439-0.155-0.86-0.233-1.263-0.233c-1.062,0-1.894,0.243-2.498,0.728
			c-0.604,0.485-0.905,0.993-0.905,1.523c0,0.531,0.256,0.998,0.768,1.399c0.641,0.439,1.556,0.751,2.746,0.934h0.055
			c1.189,0.184,2.277,0.549,3.266,1.098c1.006,0.659,1.51,1.542,1.51,2.649s-0.498,2.031-1.496,2.772
			c-0.997,0.741-2.127,1.111-3.39,1.111C552.123,201.294,550.468,200.652,548.895,199.39z"/>
		<path fill="#393530" d="M566.297,187.861c0.164,0,0.314,0.069,0.452,0.206c0.138,0.138,0.206,0.288,0.206,0.453
			s-0.068,0.315-0.206,0.453c-0.138,0.137-0.288,0.205-0.452,0.205h-1.73v9.8c0,0.293,0.115,0.531,0.344,0.714
			s0.435,0.274,0.617,0.274c0.184,0,0.348,0.073,0.494,0.22s0.22,0.302,0.22,0.466c0,0.165-0.073,0.316-0.22,0.453
			c-0.146,0.138-0.302,0.206-0.467,0.206c-0.677,0-1.24-0.22-1.688-0.659c-0.449-0.438-0.673-0.997-0.673-1.674v-9.8h-1.675
			c-0.293,0-0.476-0.055-0.549-0.164c-0.072-0.11-0.109-0.256-0.109-0.439c0-0.183,0.009-0.311,0.027-0.384
			c0.055-0.22,0.266-0.33,0.631-0.33h1.675v-4.995c0-0.165,0.069-0.315,0.206-0.453s0.293-0.206,0.467-0.206s0.334,0.068,0.48,0.206
			s0.219,0.288,0.219,0.453v4.995H566.297z"/>
		<path fill="#393530" d="M573.488,199.321c-1.245-1.326-1.867-2.904-1.867-4.734s0.622-3.408,1.867-4.735
			c1.244-1.326,2.744-1.99,4.501-1.99s3.257,0.664,4.501,1.99c1.244,1.327,1.867,2.905,1.867,4.735s-0.623,3.408-1.867,4.734
			c-1.244,1.327-2.744,1.99-4.501,1.99S574.732,200.648,573.488,199.321z M577.989,189.151c-1.372,0-2.558,0.531-3.555,1.593
			s-1.496,2.338-1.496,3.829s0.499,2.768,1.496,3.829s2.183,1.592,3.555,1.592s2.558-0.53,3.555-1.592s1.495-2.338,1.495-3.829
			s-0.498-2.768-1.495-3.829S579.361,189.151,577.989,189.151z"/>
		<path fill="#393530" d="M588.42,200.652v-12.104c0-0.183,0.063-0.338,0.191-0.467c0.128-0.128,0.283-0.192,0.467-0.192
			c0.183,0,0.338,0.064,0.467,0.192c0.128,0.129,0.191,0.284,0.191,0.467v2.965c0.074-0.146,0.138-0.257,0.193-0.33
			c1.408-2.195,3.201-3.294,5.379-3.294c0.184,0,0.339,0.064,0.467,0.192c0.128,0.129,0.192,0.284,0.192,0.467
			c0,0.184-0.064,0.339-0.192,0.467s-0.283,0.192-0.467,0.192c-1.464,0-2.763,0.731-3.897,2.195
			c-0.659,0.879-1.198,1.922-1.619,3.129c-0.037,0.074-0.056,0.147-0.056,0.22v5.901c0,0.184-0.063,0.339-0.191,0.467
			c-0.129,0.129-0.284,0.192-0.467,0.192c-0.184,0-0.339-0.063-0.467-0.192C588.483,200.991,588.42,200.836,588.42,200.652z"/>
		<path fill="#393530" d="M611.531,194.12v0.109c0,0.184-0.064,0.33-0.191,0.439c-0.129,0.109-0.285,0.165-0.467,0.165h-11.035
			c0.073,1.464,0.613,2.689,1.619,3.678c1.007,0.988,2.205,1.482,3.597,1.482c0.896,0,1.729-0.22,2.497-0.659
			c0.77-0.438,1.382-1.033,1.84-1.784c0.219-0.365,0.512-0.438,0.878-0.22c0.366,0.257,0.439,0.567,0.22,0.934
			c-0.586,0.934-1.358,1.675-2.319,2.224s-1.999,0.823-3.115,0.823c-1.812,0-3.354-0.654-4.626-1.963
			c-1.271-1.308-1.907-2.891-1.907-4.748s0.636-3.445,1.907-4.763c1.272-1.317,2.791-1.977,4.557-1.977s3.262,0.6,4.488,1.798
			C610.699,190.858,611.385,192.346,611.531,194.12z M608.348,190.414c-0.952-0.823-2.055-1.235-3.308-1.235
			c-1.254,0-2.356,0.408-3.308,1.222c-0.951,0.814-1.556,1.862-1.812,3.144h10.184C609.885,192.281,609.299,191.238,608.348,190.414
			z"/>
	</g>
</g>
<g>
	<g>
		<g>
			<circle opacity="0.5" fill="#3A8DAF" enable-background="new    " cx="95.767" cy="51.364" r="7.032"/>
			<polygon fill="#3A8DAF" points="81.541,36.466 105.489,65.654 102.775,183.654 58.403,190.673 			"/>
			<polygon fill="#3A8DAF" points="60.341,193.73 101.222,185.628 101.678,187.648 63.136,203.342 			"/>
			<polygon opacity="0.5" fill="#3A8DAF" enable-background="new    " points="102.765,188.479 72.129,205.557 81.702,204.27 			"/>
			<circle fill="#3A8DAF" cx="91.198" cy="33.824" r="3.265"/>
			<circle opacity="0.7" fill="#3A8DAF" enable-background="new    " cx="96.298" cy="45.82" r="3.062"/>
			<path opacity="0.2" fill="#3A8DAF" enable-background="new    " d="M105.519,39.37c-0.507,1.614-2.221,2.512-3.833,2.009
				c-1.616-0.504-2.516-2.221-2.013-3.834c0.503-1.614,2.222-2.514,3.837-2.009C105.122,36.039,106.021,37.756,105.519,39.37z"/>
			<path opacity="0.4" fill="#3A8DAF" enable-background="new    " d="M100.492,29.645c-0.463,1.491-2.049,2.322-3.544,1.856
				c-1.491-0.466-2.32-2.052-1.854-3.543c0.466-1.491,2.052-2.322,3.543-1.857C100.128,26.567,100.958,28.154,100.492,29.645z"/>
			<path fill="#3A8DAF" d="M101.127,22.644c-0.294,0.93-1.281,1.45-2.214,1.159c-0.93-0.291-1.451-1.282-1.16-2.212
				c0.293-0.931,1.281-1.45,2.214-1.16C100.899,20.722,101.417,21.713,101.127,22.644z"/>
			<circle opacity="0.4" fill="#3A8DAF" enable-background="new    " cx="88.956" cy="41.661" r="3.768"/>
		</g>
		<g>
			<path fill="#FFFFFF" d="M100.98,127.518c0,8.211-6.654,14.867-14.865,14.867c-8.214,0-14.868-6.656-14.868-14.867
				c0-8.209,6.654-14.866,14.868-14.866C94.326,112.651,100.98,119.307,100.98,127.518z"/>
			<g>
				<polygon fill="#FFFFFF" stroke="#3A8DAF" stroke-width="0.6027" points="81.988,133.127 79.623,125.852 85.811,121.355 
					92.002,125.852 89.637,133.127 				"/>
				<polygon fill="none" stroke="#3A8DAF" stroke-width="0.8295" points="78.948,124.921 72.331,122.021 71.53,114.837 
					77.354,110.555 83.975,113.455 84.771,120.639 				"/>
				<polygon fill="none" stroke="#3A8DAF" stroke-width="0.8295" points="92.542,124.773 86.644,120.596 87.312,113.398 
					93.882,110.38 99.779,114.559 99.107,121.755 				"/>
				<polygon fill="none" stroke="#3A8DAF" stroke-width="0.8295" points="95.637,138.49 90.801,133.119 93.041,126.246 
					100.109,124.745 104.942,130.117 102.709,136.99 				"/>
				<polygon fill="none" stroke="#3A8DAF" stroke-width="0.8295" points="82.241,146.71 78.64,140.443 82.271,134.193 
					89.497,134.209 93.096,140.477 89.468,146.729 				"/>
				<polygon fill="none" stroke="#3A8DAF" stroke-width="0.8295" points="76.105,138.757 69.026,137.305 69.291,131.396 
					71.541,125.043 78.621,126.494 80.905,133.352 				"/>
			</g>
		</g>
		<circle fill="#FFFFFF" cx="83.238" cy="104.959" r="2.242"/>
		<path opacity="0.7" fill="#FFFFFF" enable-background="new    " d="M93.063,118.225c-0.507,1.613-2.222,2.515-3.838,2.01
			c-1.611-0.504-2.511-2.221-2.008-3.836c0.503-1.611,2.222-2.511,3.833-2.008C92.666,114.895,93.566,116.611,93.063,118.225z"/>
		<circle opacity="0.2" fill="#FFFFFF" enable-background="new    " cx="92.944" cy="113.656" r="3.06"/>
		<path opacity="0.4" fill="#FFFFFF" enable-background="new    " d="M91.972,109.474c-0.462,1.491-2.049,2.323-3.543,1.857
			c-1.491-0.466-2.32-2.053-1.854-3.544c0.466-1.491,2.052-2.321,3.543-1.856C91.609,106.397,92.439,107.983,91.972,109.474z"/>
		<path fill="#FFFFFF" d="M88.686,99.797c-0.18,0.583-0.801,0.908-1.385,0.725c-0.584-0.182-0.907-0.801-0.723-1.384
			c0.18-0.583,0.801-0.908,1.385-0.727C88.542,98.595,88.87,99.214,88.686,99.797z"/>
		<path opacity="0.4" fill="#FFFFFF" enable-background="new    " d="M85.341,113.975c-0.621,1.986-2.735,3.093-4.723,2.473
			c-1.983-0.62-3.092-2.733-2.471-4.719c0.621-1.985,2.732-3.093,4.719-2.473C84.852,109.876,85.961,111.989,85.341,113.975z"/>
	</g>
	<g>
		<g>
			<circle opacity="0.2" fill="#DB1D1D" enable-background="new    " cx="127.365" cy="32.237" r="7.284"/>
			<polygon fill="#DB1D1D" points="106.521,55.091 170.811,47.055 153.232,198.736 110.538,179.652 			"/>
			<polygon fill="#DB1D1D" points="110.54,182.062 150.923,199.339 151.224,205.87 110.641,184.574 			"/>
			<polygon opacity="0.4" fill="#DB1D1D" enable-background="new    " points="110.538,186.182 152.228,209.787 152.73,217.822 			
				"/>
			<circle opacity="0.3" fill="#DB1D1D" enable-background="new    " cx="147.858" cy="45.195" r="7.786"/>
			<circle opacity="0.8" fill="#DB1D1D" enable-background="new    " cx="139.27" cy="49.666" r="4.52"/>
			<circle fill="#DB1D1D" cx="132.388" cy="13.904" r="1.757"/>
			<circle opacity="0.3" fill="#DB1D1D" enable-background="new    " cx="123.749" cy="27.014" r="2.762"/>
			<circle opacity="0.5" fill="#DB1D1D" enable-background="new    " cx="147.708" cy="33.493" r="3.516"/>
			<circle opacity="0.7" fill="#DB1D1D" enable-background="new    " cx="119.078" cy="59.109" r="10.045"/>
			<circle opacity="0.6" fill="#DB1D1D" enable-background="new    " cx="129.324" cy="44.442" r="3.264"/>
			<circle opacity="0.7" fill="#DB1D1D" enable-background="new    " cx="137.412" cy="25.958" r="2.763"/>
		</g>
		<g>
			<path fill="#FFFFFF" d="M148.931,92.186c-1.307-2.312-0.604-1.406-0.401-1.809c0.2-0.402,0.703-0.905,0.3-1.105
				c-0.396-0.198-11.588-0.785-13.77-0.517c-2.181-0.268-13.374,0.318-13.769,0.517c-0.402,0.2,0.1,0.703,0.299,1.105
				c0.202,0.402,0.905-0.503-0.4,1.809c-1.308,2.312-2.916,5.528-2.916,6.031c0,0.502,0.102,45.629,0.102,47.74
				s2.612,2.412,3.417,2.714c0.804,0.302-0.302,0.399,1.509,1.707c1.704,1.229,10.711,1.125,11.758,1.108
				c1.046,0.017,10.056,0.121,11.759-1.108c1.809-1.308,0.703-1.405,1.508-1.707c0.804-0.303,3.418-0.604,3.418-2.714
				s0.099-47.238,0.099-47.74C151.845,97.714,150.236,94.498,148.931,92.186z"/>
			<polygon fill="#DB1D1D" points="150.319,134.249 119.38,118.577 119.38,100.495 150.319,116.167 			"/>
			<polygon fill="#DB1D1D" points="150.319,142.157 119.38,126.484 119.38,121.665 150.319,137.334 			"/>
			<polygon fill="#DB1D1D" points="150.319,147.503 119.38,131.832 119.38,129.723 150.319,145.395 			"/>
			<g>
				<circle opacity="0.7" fill="#FFFFFF" enable-background="new    " cx="129.425" cy="76.187" r="3.061"/>
				<circle opacity="0.2" fill="#FFFFFF" enable-background="new    " cx="126.813" cy="73.072" r="3.062"/>
				<circle opacity="0.3" fill="#FFFFFF" enable-background="new    " cx="140.727" cy="84.977" r="5.942"/>
				<circle fill="#FFFFFF" cx="135.956" cy="81.912" r="3.768"/>
				<circle fill="#FFFFFF" cx="133.602" cy="66.543" r="1.767"/>
				<circle opacity="0.4" fill="#FFFFFF" enable-background="new    " cx="128.32" cy="86.633" r="3.768"/>
			</g>
		</g>
	</g>
	<g>
		<g>
			<polygon fill="#F9B226" points="161.385,197.23 196.544,175.635 191.521,39.521 172.937,53.584 			"/>
			<circle opacity="0.7" fill="#F9B226" enable-background="new    " cx="173.438" cy="33.446" r="3.061"/>
			<circle opacity="0.2" fill="#F9B226" enable-background="new    " cx="184.489" cy="29.475" r="3.062"/>
			<path opacity="0.3" fill="#F9B226" enable-background="new    " d="M188.675,41.78c0,3.282-2.662,5.943-5.945,5.943
				c-3.279,0-5.941-2.661-5.941-5.943c0-3.282,2.662-5.942,5.941-5.942C186.013,35.838,188.675,38.499,188.675,41.78z"/>
			<circle fill="#F9B226" cx="177.96" cy="45.547" r="3.768"/>
			<circle fill="#F9B226" cx="182.48" cy="24.452" r="1.766"/>
			<circle opacity="0.4" fill="#F9B226" enable-background="new    " cx="171.934" cy="37.009" r="3.768"/>
			<polygon fill="#F9B226" points="196.041,177.643 161.888,200.244 162.391,203.76 			"/>
			<polygon opacity="0.5" fill="#F9B226" enable-background="new    " points="196.133,179.686 168.402,202.424 168.526,205.434 			
				"/>
		</g>
		<g>
			<g enable-background="new    ">
				<path fill="#FFFFFF" d="M185.589,126.172l-0.315,1.725l-6.218,0.574l0.041,0.438c0.407,4.402,1.387,6.211,5.017,5.875
					c2.588-0.238,3.804-0.656,5.052-1.822l0.157,0.968c-1.771,2.842-4.123,3.805-7.282,4.097c-3.428,0.316-7.516-1.001-8.152-7.891
					l-0.109-1.177l-2.856,0.265l0.315-1.725l2.487-0.23c0.002-0.712,0.035-1.459,0.067-2.208l-2.386,0.221l0.315-1.726l2.251-0.207
					c0.746-5.492,3.368-10.514,9.686-11.098c3.125-0.289,5.963,0.704,6.264,3.963c0.165,1.781-0.353,3.151-2.067,3.31
					c-0.538,0.05-1.289-0.016-1.996-0.696c0.818-0.312,1.302-2.053,1.224-2.893c-0.049-0.539-0.389-2.371-2.54-2.172
					c-2.856,0.264-4.632,4.53-5.261,9.095l6.789-0.628l-0.315,1.726l-6.655,0.615c-0.066,0.751-0.098,1.499-0.101,2.212
					L185.589,126.172z"/>
			</g>
			<circle opacity="0.2" fill="#FFFFFF" enable-background="new    " cx="179.365" cy="107.026" r="3.061"/>
			<circle fill="#FFFFFF" cx="183.395" cy="110.796" r="2.262"/>
			<path fill="#FFFFFF" d="M179.403,101.558c0,0.854-0.69,1.546-1.542,1.546c-0.856,0-1.546-0.692-1.546-1.546
				c0-0.853,0.69-1.545,1.546-1.545C178.713,100.013,179.403,100.706,179.403,101.558z"/>
			<circle opacity="0.4" fill="#FFFFFF" enable-background="new    " cx="177.266" cy="113.709" r="2.391"/>
		</g>
	</g>
</g>
</svg>
